<svg width="500" height="500" fill="none" xmlns="http://www.w3.org/2000/svg"><path d="m250 0 216.506 375H33.494L250 0Z" fill="#021E16"/><path d="M227.78 269.52c-1.76 0-3.08-.733-3.96-2.2l-48.4-68.86c-2.347 1.76-4.033 4.033-5.06 6.82-.88 2.64-1.32 6.453-1.32 11.44v23.54h14.3c1.32 0 2.42.44 3.3 1.32.88.88 1.32 1.98 1.32 3.3v16.5c0 1.32-.44 2.42-1.32 3.3-.88.88-1.98 1.32-3.3 1.32H152.1c-2.64 0-4.913-.88-6.82-2.64-1.76-1.907-2.64-4.18-2.64-6.82V217.6c0-9.093 1.247-16.647 3.74-22.66 2.493-6.013 6.673-11.367 12.54-16.06l1.76-1.54-17.38-24.86c-.587-.733-.88-1.613-.88-2.64 0-1.613.733-2.933 2.2-3.96l13.86-9.9c.733-.587 1.613-.88 2.64-.88 1.613 0 2.933.733 3.96 2.2l42.24 60.28c4.987-.44 9.093-2.2 12.32-5.28 3.373-3.227 5.06-7.187 5.06-11.88v-17.6h-14.52c-1.32 0-2.42-.44-3.3-1.32-.88-.88-1.32-1.98-1.32-3.3v-16.5c0-1.32.44-2.42 1.32-3.3.88-.88 1.98-1.32 3.3-1.32h31.46c2.64 0 4.84.953 6.6 2.86 1.907 1.76 2.86 3.96 2.86 6.6v32.78c0 9.387-2.567 17.527-7.7 24.42-5.133 6.893-12.247 11.807-21.34 14.74l23.54 33.66c.587.733.88 1.613.88 2.64 0 1.613-.733 2.933-2.2 3.96l-13.86 9.9c-.733.587-1.613.88-2.64.88Z" fill="#44FFBC"/><path d="M344.026 372.384c-2.192 0-3.836-.913-4.932-2.74l-60.28-85.762c-2.923 2.192-5.023 5.023-6.302 8.494-1.096 3.288-1.644 8.037-1.644 14.248v29.318h17.81c1.644 0 3.014.548 4.11 1.644 1.096 1.096 1.644 2.466 1.644 4.11v20.55c0 1.644-.548 3.014-1.644 4.11-1.096 1.096-2.466 1.644-4.11 1.644H249.77c-3.288 0-6.119-1.096-8.494-3.288-2.192-2.375-3.288-5.206-3.288-8.494V307.72c0-11.325 1.553-20.733 4.658-28.222 3.105-7.489 8.311-14.157 15.618-20.002l2.192-1.918-21.646-30.962c-.731-.913-1.096-2.009-1.096-3.288 0-2.009.913-3.653 2.74-4.932l17.262-12.33c.913-.731 2.009-1.096 3.288-1.096 2.009 0 3.653.913 4.932 2.74l52.608 75.076c6.211-.548 11.325-2.74 15.344-6.576 4.201-4.019 6.302-8.951 6.302-14.796v-21.92h-18.084c-1.644 0-3.014-.548-4.11-1.644-1.096-1.096-1.644-2.466-1.644-4.11v-20.55c0-1.644.548-3.014 1.644-4.11 1.096-1.096 2.466-1.644 4.11-1.644h39.182c3.288 0 6.028 1.187 8.22 3.562 2.375 2.192 3.562 4.932 3.562 8.22v40.826c0 11.691-3.197 21.829-9.59 30.414s-15.253 14.705-26.578 18.358l29.318 41.922c.731.913 1.096 2.009 1.096 3.288 0 2.009-.913 3.653-2.74 4.932l-17.262 12.33c-.913.731-2.009 1.096-3.288 1.096Z" fill="#00AD7B"/></svg>